<?xml version="1.0" encoding="utf-8"?>
  <svg
    xmlns="http://www.w3.org/2000/svg"
    xmlSpace="preserve"
    width="32px"
    height="32px"
    viewBox="0 0 1080 1080"
    fill="#44D25C"
  >
    <rect width="100%" height="100%" fill="transparent" />
    <path
      d="M4777.94 1273.26c-19.09-5.89-35.35-1.32-41.31.7-13.2.18-29.46 1.54-47.67 5.59a235.6 235.6 0 0 0-53.22 18.91c4.3 14.6 10.67 31.63 20.3 49.76 16.92 31.74 37.33 54.44 53.26 69.37 17.65-10.56 37.33-24.05 57.45-41.34 11-9.49 20.78-18.94 29.42-28.03 4.63-3.82 12.4-11.29 17.51-23.14 2.91-6.69 4.08-12.87 4.6-17.51-2.21-4.3-13.94-26.19-40.35-34.32Z"
      transform="matrix(.65 0 0 .64 -2210.427 -38.475)"
      vectorEffect="non-scaling-stroke"
    />
    <path
      d="M3954.74 1577.29c-13.68-12.84-26-22.66-35.02-29.42-6.14-13.13-13.94-31.23-21.7-53.22-3.53-10-13.09-37.04-18.24-62.34-4.78-23.54-9.49-63.89 1.4-117.7-11 9.34-31.48 29.35-44.14 61.64-16.29 41.67-9.6 78.49-6.29 92.47-9.86-12.76-35.42-49.51-36.41-102.29-.7-36.08 10.37-63.85 17.51-78.45a258.4 258.4 0 0 0-52.56 32.22 257 257 0 0 0-35.02 33.62c1.36-18.43 6.14-50.24 24.5-84.78 20.01-37.48 46.45-60.17 61.68-71.43-20.6 0-52.01 2.5-87.58 15.41-31.78 11.51-55.39 27.18-70.77 39.21 5.19-14.38 17.29-41.56 44.14-65.14 40.64-35.71 87.32-38.84 101.59-39.25-20.93-10.81-57.56-26.37-105.78-30.12-51.46-3.97-92.28 7.32-114.9 15.41 25.01-21.99 72.35-57.82 141.5-78.45 78.38-23.39 145.03-15.49 178.68-9.12-11.07 4.82-32.88 16.15-50.46 39.94a122.3 122.3 0 0 0-19.6 40.64c37.52-15.96 87.24-32.18 147.12-39.25 26.63-3.13 51.35-3.97 73.56-3.49-15.04-7.72-36.41-16.37-63.04-20.34a207.6 207.6 0 0 0-34.35-2.1c1.21-4.05 3.68-9.86 9.12-14.01 7.14-5.44 15.41-4.82 28.03-4.19 8.9.44 22.69 1.03 40.61 1.4 16.18 2.54 41.16 7.17 70.77 16.11 95.48 28.84 160.48 78.53 227.01 130.32 28.36 22.1 66.98 54.18 109.98 96.7 47.96-18.54 110.97-37.41 186.37-46.23 47.23-5.55 90-6.07 126.78-4.23-59.99-70.03-120.02-140.1-180.04-210.17a96.2 96.2 0 0 1-11.92-33.62c-2.61-17.18 0-31.23 2.13-39.25a215.4 215.4 0 0 0 21-65.84c3.83-25.75 2.28-47.63 0-63.08a542 542 0 0 0-53.96-105.08c-29.65-44.95-61.46-78.53-87.58-102.29 27.88-97.18 55.76-194.39 83.6-291.56 16.29-56.72 32.55-113.4 48.81-170.11a8555 8555 0 0 0-61.64 95.96c-16.22 25.67-32.22 51.24-47.89 76.65 6.22-9.38 16.11-14.93 26.19-14.27 7.5.44 12.95 4.27 15.41 6.29a3529 3529 0 0 0-39.94 53.96 3584 3584 0 0 0-46.23 65.14c6.03-6.55 15.67-15.37 29.42-22.4a103.2 103.2 0 0 1 22.4-8.42c-1.73 6.77-22.91 84.71-82.65 98.79-7.94 1.88-18.02 2.94-30.12 1.4 2.54 6.03 8.17 17.03 19.6 26.63a70.3 70.3 0 0 0 22.44 12.58c-3.68 1.29-35.35 11.81-56.05-5.59-12.73-10.7-14.79-26.45-16.81-44.14-1.8-15.49-2.57-44.06 11.88-79.15 28.1-44.58 59.29-90.78 93.9-138.04 56.46-77.06 113.43-145.06 168.13-204.58a2379 2379 0 0 0-259.2 152.75c-95.78 64.88-177.73 130.65-246.62 191.96-37.3-57.64-85.88-123.33-148.52-190.56-51.97-55.8-103.32-101.59-149.92-138.74-13.68-4.85-24.42-9.05-31.56-11.88-9.89-3.97-14.23-5.92-21-5.63-8.39.4-14.6 4.01-21 7.72-4.93 2.83-11.92 7.61-18.94 15.41-34.28 55.69-71.8 132.23-93.17 226.98-10.63 47.04-25.93 117.92-12.62 208.07 3.02 20.38 6.8 37.22 9.82 49.07-13.57 3.46-40.53 12.32-65.87 35.71-21.15 19.6-31.93 40.79-37.11 53.26a99.3 99.3 0 0 1 36.41-19.64 99.3 99.3 0 0 1 36.45-3.49c-18.17 10.92-42.74 28.62-65.87 56.05-34.72 41.19-48.66 83.64-54.62 107.88a219.2 219.2 0 0 1 42.7-30.12c27.73-14.93 53.52-21.08 71.47-23.8-29.65 24.86-73.23 67.53-109.28 131.71-38.73 68.96-52.01 132.85-57.12 172.32 7.25-12.84 32.96-54.66 85.85-74.26 32.92-12.17 62.12-10.48 77.76-8.39-18.91 13.2-73.89 55.28-100.19 133.81-24.39 72.79-9.97 134.84-3.49 157.64 1.58-11.59 6.88-38.58 28.03-64.48 20.01-24.5 43.7-35.09 54.66-39.21-7.61 15.63-26.34 59.47-16.81 115.57 7.54 44.76 29.35 75.22 40.61 88.97-1.32-13.09-2.06-28.17-1.4-44.84.85-20.89 3.68-39.28 7.03-54.62 7.25 32.55 28.14 103.72 91.77 161.84 25.82 23.58 52.08 38.95 73.56 49.03-4.34-6.8-12.28-21.33-13.31-41.34-.74-14.38 2.39-25.93 4.89-32.92 4.82 9.71 12.21 23.76 22.44 39.94 25.05 39.65 49.99 65.03 90.37 103.69 65.18 62.38 121.23 112.11 165.33 150.62 17.58 15.34 32.15 27.92 42.04 36.41-8.24-36.19-21.3-63.45-31.52-81.25-22.11-38.58-48.29-63.45-66.57-80.59Zm263.68-668.13c43.07 2.13 71.28 28.54 81.73 38.33 18.94 17.73 29.24 36.71 34.57 48.55-25.75-5-57.86-13.65-92.95-28.95-33.29-14.49-60.21-31.08-80.81-45.76 11.88-5.81 32.15-13.43 57.45-12.17Zm-567.49-610.42c18.28-73.64 49.99-127.78 72.39-160.22 2.13-3.05 7.83-10.45 18.24-14.49 14.09-5.44 26.56-.7 29.42.48a646 646 0 0 1 45.76 32.7c41.53 32.48 69.55 62.64 80.81 75.18 40.64 45.39 63.23 85.18 88.27 129.4 16.18 28.58 36.93 68.27 57.45 117.7 3.79 16.07 7.72 40.53 5.15 70.07-2.54 28.58-5.26 59.58-28.03 82.17-22.47 22.29-52.41 24.5-68.67 25.71-63.3 4.67-110.93-33.77-125.17-46.23 11.88 7.5 31.26 17.54 56.97 21.96 42.08 7.21 75.81-5 90.15-11.22-18.43.15-48.77-1.88-83.16-15.41a222.2 222.2 0 0 1-69.59-43.92c21.77 9.38 52.6 19.79 90.63 23.83 25.31 2.68 47.67 1.91 65.84 0-15.67-2.83-39.39-9.01-64.92-23.83-27.77-16.15-45.79-35.64-56.05-48.59 8.2 2.87 20.63 6.11 35.97 6.11 19.2-.04 34.21-5.15 42.96-8.9-12.43.74-34.91.4-60.25-9.78-30.27-12.21-48.44-32.04-56.5-42.04 8.17-1.1 17.25-1.84 27.07-1.88 21.55-.07 40.13 3.16 54.66 6.99-2.43-7.43-6.47-17.84-13.06-29.42-10.15-17.73-21.11-28.87-27.11-35.02-32.33-32.99-81.84-55.69-92.03-60.25 18.21.29 46.09 3.05 77.09 15.89 45.94 19.02 73.45 49.76 85.92 65.84a310.4 310.4 0 0 0-60.73-75.18c-32.29-29.28-64.55-46.09-86.84-55.58 14.64 1.47 32.74 4.6 52.74 11.18 15.78 5.22 29.24 11.4 40.16 17.29a667.3 667.3 0 0 0-59.77-90.59 650 650 0 0 0-29.9-35.49c-1.69-2.06-7.14-8.13-15.85-9.34-10.78-1.51-22.14 4.97-28.03 16.33-38.55 70.58-48.51 132.08-51.38 168.6 0 0-7.87 99.9 25.67 194.79 1.62 4.49 11.18 30.82 21.48 67.24 1.66 5.81 2.94 10.59 3.75 13.54 1.32 4.05 3.13 11.29 1.88 20.08-.81 5.66-1.4 9.71-4.19 11.22-5.19 2.76-14.34-4.89-26.63-15.41a245 245 0 0 1-17.77-16.81c-21.11-38.18-49.76-102.18-57.45-185.89-2.24-24.72-5.77-84.78 12.62-158.78Z"
      transform="matrix(.65 0 0 .64 -2210.433 -38.475)"
      vectorEffect="non-scaling-stroke"
    />
    <path
      d="M4348.48 1347.52c-100.93-47.26-172.1-107.69-216.46-152.05 2.28 14.49 7.5 35.86 20.3 58.85 16.85 30.23 38.66 48.66 51.82 58.15-17.62-7.25-57.71-20.82-107.88-12.58-34.91 5.7-60.73 19.71-75.66 29.42 16.15-5.08 40.68-10.67 70.77-9.82 34.24.96 61.24 9.89 77.76 16.81-21.11-3.24-55.98-5.74-96.7 4.89a238.6 238.6 0 0 0-65.14 28.03c13.83-4.08 87.83-24.57 161.14 17.51 50.43 28.98 73.71 72.13 81.98 89.71-11.22-2.13-22.44-4.23-33.65-6.33 7.98 9.53 19.82 26.56 24.53 50.46 10.85 54.88-25.56 97.65-30.82 103.69 1.69-5.04 14.34-44.84-9.82-81.29-17.43-26.3-43.44-34.91-51.13-37.11 4.89 3.75 18.83 15.56 24.5 36.41 4.38 16.04 1.69 29.5 0 35.71-2.28-3.68-11.29-17.43-21.7-16.81-12.14.74-25.19 21-24.53 51.86-1.21-5.55-5.52-21.55-20.3-32.22-5-3.6-9.93-5.74-14.01-7.02-2.65 15.6-4.63 38.33-.7 65.18 4.52 30.82 15.08 54.51 23.1 69.33.88-8.46 4.6-34.43 25.93-56.75 16.29-17.03 34.76-23.47 43.44-25.89 2.43 2.32 7.28 7.76 9.12 16.11 3.31 15.26-6.4 27.14-7.72 28.73 70.18-31.04 117.07-69.3 145.03-96 42.96-40.97 55.65-68.56 60.95-81.95 14.64-36.93 14.46-70.69 12.62-91.11 21.19 14.2 55.91 33.32 102.29 42.04 82.54 15.56 148.74-11.88 173.75-23.8-70.47.59-195.49-7.87-332.79-72.16Z"
      transform="matrix(.65 0 0 .64 -2210.427 -38.488)"
      vectorEffect="non-scaling-stroke"
    />
  </svg>